<svg width="125" height="32" viewBox="0 0 125 32" fill="none" xmlns="http://www.w3.org/2000/svg">
<path d="M16.5935 23.285C16.6559 23.5138 16.5935 23.6455 16.3646 23.7773C14.638 24.9214 12.1279 25.601 9.61769 25.601C3.84846 25.601 0 21.8149 0 16.1774C0 10.54 3.78606 6.71924 9.45821 6.71924C15.1304 6.71924 18.0704 10.2071 18.0704 16.1428C18.0704 16.6351 18.0358 17.1205 17.9387 17.6128C17.904 17.8763 17.7445 18.0011 17.4464 18.0011H6.97577C6.97577 18.0011 6.97577 20.0536 9.71477 20.0536C11.379 20.0536 13.2373 19.6653 14.7074 18.9788C14.9362 18.8818 15.1304 19.0135 15.1997 19.2423L16.6004 23.285H16.5935ZM11.5662 14.5757C11.5662 13.1403 10.6856 12.1972 9.38193 12.1972C7.91189 12.1972 6.93417 13.1403 6.93417 14.5757H11.5662Z" fill="#3B73FA"/>
<path d="M38.1797 1.46982C38.4432 1.46982 38.672 1.69865 38.672 1.92748V24.623C38.672 24.8865 38.4432 25.1153 38.1797 25.1153H34.4976C34.2688 25.1153 34.1093 24.9212 33.9776 24.623L33.4853 23.4511C32.244 24.7548 30.1569 25.6007 27.9726 25.6007C22.8205 25.6007 19.3604 21.8147 19.3604 16.1425C19.3604 10.4704 22.8136 6.71899 27.9726 6.71899C29.505 6.71899 30.9751 7.17665 31.9528 7.96021V1.92055C31.9528 1.69172 32.1816 1.46289 32.4451 1.46289H38.1866L38.1797 1.46982ZM31.9528 14.1177C31.5645 13.043 30.5174 12.3218 29.3733 12.3218C27.5773 12.3218 26.3708 13.8196 26.3708 16.1079C26.3708 18.3961 27.5773 20.0187 29.3733 20.0187C30.5174 20.0187 31.5576 19.3045 31.9528 18.2228V14.1108V14.1177Z" fill="#3B73FA"/>
<path d="M57.4908 7.17686C57.7543 7.17686 57.9832 7.40568 57.9832 7.66918V24.6579C57.9832 24.8867 57.7543 25.1156 57.4908 25.1156H53.8088C53.5453 25.1156 53.3858 24.8867 53.2887 24.6232L52.7964 23.4513C51.6245 24.755 49.6968 25.6009 47.5819 25.6009C43.3451 25.6009 40.835 22.8966 40.835 18.4587V7.66225C40.835 7.39875 41.0638 7.16992 41.3273 7.16992H47.0688C47.3323 7.16992 47.5611 7.39875 47.5611 7.66225V17.6405C47.5611 18.75 48.2476 19.4989 49.2877 19.4989C50.5567 19.4989 51.2778 18.4587 51.2778 18.4587V7.66225C51.2778 7.39875 51.5066 7.16992 51.7701 7.16992H57.5116L57.4908 7.17686Z" fill="#3B73FA"/>
<path d="M66.6231 7.14219C66.8866 7.14219 67.1155 7.37102 67.1155 7.63452V23.0561C67.1155 27.0641 65.0629 30.3578 61.5751 31.9249C61.3116 32.0567 61.1174 32.022 60.9579 31.7654L58.316 27.6257C58.1496 27.3969 58.2536 27.1334 58.5102 26.8768C59.682 25.7674 60.4032 24.4013 60.4032 23.1601V7.62759C60.4032 7.36409 60.632 7.13526 60.8955 7.13526H66.637L66.6231 7.14219ZM67.3096 3.35614C67.3096 5.2769 65.8742 6.58746 63.7246 6.58746C61.5751 6.58746 60.1397 5.28384 60.1397 3.35614C60.1397 1.33136 61.5751 0 63.7246 0C65.8742 0 67.3096 1.33829 67.3096 3.35614Z" fill="#667085"/>
<path d="M88.1125 16.1428C88.1125 21.8149 84.2641 25.601 78.5226 25.601C72.7811 25.601 68.9326 21.8149 68.9326 16.1774C68.9326 10.54 72.7811 6.71924 78.5226 6.71924C84.2641 6.71924 88.1125 10.5053 88.1125 16.1428ZM75.2982 16.1774C75.2982 18.2993 76.6018 19.7347 78.5295 19.7347C80.4572 19.7347 81.7608 18.2993 81.7608 16.1497C81.7608 14.0001 80.4572 12.5925 78.5295 12.5925C76.6018 12.5925 75.2982 14.0279 75.2982 16.1774Z" fill="#667085"/>
<path d="M96.6626 7.96021C97.6403 7.17665 99.1103 6.71899 100.643 6.71899C105.795 6.71899 109.255 10.505 109.255 16.1425C109.255 21.78 105.802 25.6007 100.643 25.6007C98.4585 25.6007 96.3713 24.7548 95.1301 23.4511L94.6378 24.623C94.506 24.9142 94.3466 25.1153 94.1177 25.1153H90.4357C90.1722 25.1153 89.9434 24.8865 89.9434 24.623V1.92055C89.9434 1.69172 90.1722 1.46289 90.4357 1.46289H96.1772C96.4407 1.46289 96.6695 1.69172 96.6695 1.92055V7.95327L96.6626 7.96021ZM96.6626 18.2297C97.0509 19.3045 98.0979 20.0257 99.2351 20.0257C101.031 20.0257 102.238 18.4585 102.238 16.1148C102.238 13.771 101.031 12.3287 99.2351 12.3287C98.091 12.3287 97.0509 13.043 96.6626 14.1247V18.2366V18.2297Z" fill="#667085"/>
<path d="M112.382 19.4366C112.445 19.2424 112.646 19.2078 112.805 19.3049C114.074 20.0537 115.447 20.6431 116.557 20.6431C117.243 20.7056 117.701 20.3172 117.701 19.8249C117.701 18.1607 110.559 18.6808 110.559 12.551C110.559 9.06309 113.526 6.7124 117.964 6.7124C120.086 6.7124 122.631 7.46129 124.358 8.57076C124.524 8.70251 124.621 8.86199 124.552 9.02841L122.888 12.8769C122.825 13.071 122.624 13.1057 122.465 13.0086C121.196 12.1904 119.823 11.6703 118.713 11.6703C118.027 11.6079 117.569 11.9338 117.569 12.4539C117.569 14.1805 124.711 13.5634 124.711 19.7556C124.711 23.2435 121.84 25.5941 117.507 25.5941C115.385 25.5941 112.743 24.8453 110.919 23.7358C110.753 23.5694 110.656 23.4099 110.725 23.2157L112.389 19.4297L112.382 19.4366Z" fill="#667085"/>
</svg>
